<?xml version="1.0" encoding="UTF-8"?>
<!-- Generated by Pixelmator Pro 3.7 -->
<svg width="50" height="53" viewBox="0 0 50 53" xmlns="http://www.w3.org/2000/svg">
    <path id="Trac" fill="#ffffff" stroke="none" d="M 32.80151 8.137409 C 32.80151 12.631577 29.158268 16.274818 24.664101 16.274818 C 20.169933 16.274818 16.52669 12.631577 16.52669 8.137409 C 16.52669 3.643242 20.169933 0 24.664101 0 C 29.158268 0 32.80151 3.643242 32.80151 8.137409 Z"/>
    <path id="path1" fill="#ffffff" stroke="none" d="M 42.124599 9.419281 L 24.932301 26.611601 L 7.74 9.419281 L 7.71851 9.397789 L 3.87797 5.557251 C -1.46466 14.8479 -0.177899 26.9848 7.74 34.902699 L 24.932301 52.095001 L 42.124599 34.902699 C 50.0429 26.9848 51.329201 14.8479 45.986599 5.557251 L 42.124599 9.419281 Z"/>
    <path id="path2" fill="#ffffff" stroke="none" d="M 24.932301 47.043499 L 10.2657 32.376999 C 3.17232 25.4002 0.690903 14.982498 3.87797 5.557251 C -1.46466 14.8479 -0.177899 26.9848 7.74 34.902699 L 24.932699 52.095001 L 42.1255 34.902699 C 50.0434 26.9848 51.330101 14.847401 45.987 5.557251 C 49.1745 14.982498 46.6931 25.4002 39.5993 32.376999 L 24.932699 47.043499 L 24.932301 47.043499 Z"/>
    <path id="path3" fill="#ffffff" stroke="none" d="M 35.6395 28.4711 L 24.878799 39.2318 L 14.1181 28.4711 C 7.98252 22.361401 4.31741 14.202301 3.82446 5.557251 L 7.665 9.397789 L 7.68649 9.419281 L 24.878799 26.611601 L 42.071499 9.419281 L 42.092999 9.397789 L 45.933102 5.557251 C 45.440601 14.202301 41.775002 22.361401 35.6395 28.4711 Z"/>
</svg>
